<?xml version="1.0" encoding="UTF-8"?>
<svg width="80" height="80" viewBox="0 0 80 80" xmlns="http://www.w3.org/2000/svg">
  <rect width="80" height="80" rx="20" fill="#000"/>
  <text x="40" y="50" font-family="Arial" font-size="16" fill="#5AC8FA" text-anchor="middle">Apple Cash</text>
  <path d="M40 26c-2.3 0-4.3 1-5.9 2.6-1.4 1.6-2.2 3.7-2.1 5.9 0 4.6 3.8 8.4 8 8.4 2.3 0 4.3-1 5.9-2.6 1.4-1.6 2.2-3.7 2.1-5.9 0-4.6-3.8-8.4-8-8.4zm-.1 2.7c1.1 0 2.3.4 3.1 1.1-1.1.6-1.8 1.8-1.8 3 0 1.2.7 2.3 1.8 2.9-.8.7-2 1.1-3.1 1.1-2.8 0-5-2.3-5-5.1s2.2-5 5-5z" fill="#5AC8FA"/>
</svg>